<mxfile host="app.diagrams.net" modified="2021-03-27T08:39:29.604Z" agent="5.0 (Macintosh; Intel Mac OS X 11_2_3) AppleWebKit/537.36 (KHTML, like Gecko) Chrome/88.0.4324.192 Safari/537.36" etag="_I_BPel1EN_fgAf4mb63" version="14.5.1" type="github">
  <diagram id="ijdLLFv-g7wNjGwgzGrX" name="Page-1">
    <mxGraphModel dx="1426" dy="1916" grid="1" gridSize="10" guides="1" tooltips="1" connect="1" arrows="1" fold="1" page="1" pageScale="1" pageWidth="850" pageHeight="1100" math="0" shadow="0">
      <root>
        <mxCell id="0" />
        <mxCell id="1" parent="0" />
        <mxCell id="fWiGB3wulPHr79ohLmcu-1" value="App Quản lý văn bản điều hành" style="rounded=1;whiteSpace=wrap;html=1;fontSize=14;fontFamily=Times New Roman;" vertex="1" parent="1">
          <mxGeometry x="640" y="-40" width="210" height="60" as="geometry" />
        </mxCell>
        <mxCell id="fWiGB3wulPHr79ohLmcu-2" value="Phân hệ quản lý văn bản" style="rounded=1;whiteSpace=wrap;html=1;fontFamily=Times New Roman;fontSize=14;" vertex="1" parent="1">
          <mxGeometry x="30" y="150" width="180" height="60" as="geometry" />
        </mxCell>
        <mxCell id="fWiGB3wulPHr79ohLmcu-3" value="Phân hệ quản lý công việc" style="rounded=1;whiteSpace=wrap;html=1;fontFamily=Times New Roman;fontSize=14;" vertex="1" parent="1">
          <mxGeometry x="220" y="150" width="180" height="60" as="geometry" />
        </mxCell>
        <mxCell id="fWiGB3wulPHr79ohLmcu-4" value="Phân hệ hoạt động kiểm toán" style="rounded=1;whiteSpace=wrap;html=1;fontFamily=Times New Roman;fontSize=14;" vertex="1" parent="1">
          <mxGeometry x="410" y="150" width="180" height="60" as="geometry" />
        </mxCell>
        <mxCell id="fWiGB3wulPHr79ohLmcu-5" value="Phân hệ thông tin cán bộ" style="rounded=1;whiteSpace=wrap;html=1;fontFamily=Times New Roman;fontSize=14;" vertex="1" parent="1">
          <mxGeometry x="610" y="150" width="180" height="60" as="geometry" />
        </mxCell>
        <mxCell id="fWiGB3wulPHr79ohLmcu-6" value="Phân hệ quản lý cuộc họp" style="rounded=1;whiteSpace=wrap;html=1;fontFamily=Times New Roman;fontSize=14;" vertex="1" parent="1">
          <mxGeometry x="810" y="150" width="180" height="60" as="geometry" />
        </mxCell>
        <mxCell id="fWiGB3wulPHr79ohLmcu-7" value="Phân hệ văn bản pháp luật" style="rounded=1;whiteSpace=wrap;html=1;fontFamily=Times New Roman;fontSize=14;" vertex="1" parent="1">
          <mxGeometry x="1010" y="150" width="180" height="60" as="geometry" />
        </mxCell>
        <mxCell id="fWiGB3wulPHr79ohLmcu-8" value="Phân hệ thảo luận" style="rounded=1;whiteSpace=wrap;html=1;fontFamily=Times New Roman;fontSize=14;" vertex="1" parent="1">
          <mxGeometry x="1630" y="150" width="180" height="60" as="geometry" />
        </mxCell>
        <mxCell id="fWiGB3wulPHr79ohLmcu-9" value="Phân hệ tin tức" style="rounded=1;whiteSpace=wrap;html=1;fontFamily=Times New Roman;fontSize=14;" vertex="1" parent="1">
          <mxGeometry x="1220" y="150" width="180" height="60" as="geometry" />
        </mxCell>
        <mxCell id="fWiGB3wulPHr79ohLmcu-10" value="Phân hệ thông báo" style="rounded=1;whiteSpace=wrap;html=1;fontFamily=Times New Roman;fontSize=14;" vertex="1" parent="1">
          <mxGeometry x="1430" y="151" width="180" height="60" as="geometry" />
        </mxCell>
        <mxCell id="fWiGB3wulPHr79ohLmcu-15" value="" style="endArrow=none;html=1;fontFamily=Times New Roman;fontSize=14;" edge="1" parent="1">
          <mxGeometry width="50" height="50" relative="1" as="geometry">
            <mxPoint x="70" y="80" as="sourcePoint" />
            <mxPoint x="1700" y="80" as="targetPoint" />
          </mxGeometry>
        </mxCell>
        <mxCell id="fWiGB3wulPHr79ohLmcu-16" value="" style="endArrow=classic;html=1;fontFamily=Times New Roman;fontSize=14;entryX=0.25;entryY=0;entryDx=0;entryDy=0;" edge="1" parent="1" target="fWiGB3wulPHr79ohLmcu-2">
          <mxGeometry width="50" height="50" relative="1" as="geometry">
            <mxPoint x="75" y="80" as="sourcePoint" />
            <mxPoint x="670" y="320" as="targetPoint" />
          </mxGeometry>
        </mxCell>
        <mxCell id="fWiGB3wulPHr79ohLmcu-17" value="" style="endArrow=classic;html=1;fontFamily=Times New Roman;fontSize=14;entryX=0.25;entryY=0;entryDx=0;entryDy=0;" edge="1" parent="1">
          <mxGeometry width="50" height="50" relative="1" as="geometry">
            <mxPoint x="320" y="80" as="sourcePoint" />
            <mxPoint x="320" y="150" as="targetPoint" />
          </mxGeometry>
        </mxCell>
        <mxCell id="fWiGB3wulPHr79ohLmcu-18" value="" style="endArrow=classic;html=1;fontFamily=Times New Roman;fontSize=14;entryX=0.25;entryY=0;entryDx=0;entryDy=0;" edge="1" parent="1">
          <mxGeometry width="50" height="50" relative="1" as="geometry">
            <mxPoint x="510" y="80" as="sourcePoint" />
            <mxPoint x="510" y="150" as="targetPoint" />
          </mxGeometry>
        </mxCell>
        <mxCell id="fWiGB3wulPHr79ohLmcu-19" value="" style="endArrow=classic;html=1;fontFamily=Times New Roman;fontSize=14;entryX=0.25;entryY=0;entryDx=0;entryDy=0;" edge="1" parent="1">
          <mxGeometry width="50" height="50" relative="1" as="geometry">
            <mxPoint x="699.5" y="80" as="sourcePoint" />
            <mxPoint x="699.5" y="150" as="targetPoint" />
          </mxGeometry>
        </mxCell>
        <mxCell id="fWiGB3wulPHr79ohLmcu-20" value="" style="endArrow=classic;html=1;fontFamily=Times New Roman;fontSize=14;entryX=0.25;entryY=0;entryDx=0;entryDy=0;" edge="1" parent="1">
          <mxGeometry width="50" height="50" relative="1" as="geometry">
            <mxPoint x="899.5" y="80" as="sourcePoint" />
            <mxPoint x="899.5" y="150" as="targetPoint" />
          </mxGeometry>
        </mxCell>
        <mxCell id="fWiGB3wulPHr79ohLmcu-21" value="" style="endArrow=classic;html=1;fontFamily=Times New Roman;fontSize=14;entryX=0.25;entryY=0;entryDx=0;entryDy=0;" edge="1" parent="1">
          <mxGeometry width="50" height="50" relative="1" as="geometry">
            <mxPoint x="1070" y="80" as="sourcePoint" />
            <mxPoint x="1070" y="150" as="targetPoint" />
          </mxGeometry>
        </mxCell>
        <mxCell id="fWiGB3wulPHr79ohLmcu-22" value="" style="endArrow=classic;html=1;fontFamily=Times New Roman;fontSize=14;entryX=0.25;entryY=0;entryDx=0;entryDy=0;" edge="1" parent="1">
          <mxGeometry width="50" height="50" relative="1" as="geometry">
            <mxPoint x="1309.5" y="80" as="sourcePoint" />
            <mxPoint x="1309.5" y="150" as="targetPoint" />
          </mxGeometry>
        </mxCell>
        <mxCell id="fWiGB3wulPHr79ohLmcu-23" value="" style="endArrow=classic;html=1;fontFamily=Times New Roman;fontSize=14;entryX=0.25;entryY=0;entryDx=0;entryDy=0;" edge="1" parent="1">
          <mxGeometry width="50" height="50" relative="1" as="geometry">
            <mxPoint x="1510" y="80" as="sourcePoint" />
            <mxPoint x="1510" y="150" as="targetPoint" />
          </mxGeometry>
        </mxCell>
        <mxCell id="fWiGB3wulPHr79ohLmcu-24" value="" style="endArrow=classic;html=1;fontFamily=Times New Roman;fontSize=14;entryX=0.25;entryY=0;entryDx=0;entryDy=0;" edge="1" parent="1">
          <mxGeometry width="50" height="50" relative="1" as="geometry">
            <mxPoint x="1699" y="80" as="sourcePoint" />
            <mxPoint x="1699" y="150" as="targetPoint" />
          </mxGeometry>
        </mxCell>
        <mxCell id="fWiGB3wulPHr79ohLmcu-27" value="I.1 Văn bản đến" style="rounded=0;whiteSpace=wrap;html=1;fontFamily=Times New Roman;fontSize=14;" vertex="1" parent="1">
          <mxGeometry x="70" y="270" width="120" height="60" as="geometry" />
        </mxCell>
        <mxCell id="fWiGB3wulPHr79ohLmcu-28" value="I.2 Văn bản&amp;nbsp; đi" style="rounded=0;whiteSpace=wrap;html=1;fontFamily=Times New Roman;fontSize=14;" vertex="1" parent="1">
          <mxGeometry x="70" y="350" width="120" height="60" as="geometry" />
        </mxCell>
        <mxCell id="fWiGB3wulPHr79ohLmcu-29" value="I.3 Văn&amp;nbsp; bản dự thảo" style="rounded=0;whiteSpace=wrap;html=1;fontFamily=Times New Roman;fontSize=14;" vertex="1" parent="1">
          <mxGeometry x="70" y="440" width="120" height="60" as="geometry" />
        </mxCell>
        <mxCell id="fWiGB3wulPHr79ohLmcu-30" value="I.4 Văn bản tờ trình" style="rounded=0;whiteSpace=wrap;html=1;fontFamily=Times New Roman;fontSize=14;" vertex="1" parent="1">
          <mxGeometry x="70" y="530" width="120" height="60" as="geometry" />
        </mxCell>
        <mxCell id="fWiGB3wulPHr79ohLmcu-31" value="II.1 Danh sách công việc" style="rounded=0;whiteSpace=wrap;html=1;fontFamily=Times New Roman;fontSize=14;" vertex="1" parent="1">
          <mxGeometry x="240" y="270" width="120" height="60" as="geometry" />
        </mxCell>
        <mxCell id="fWiGB3wulPHr79ohLmcu-32" value="II.2 Báo cáo công việc" style="rounded=0;whiteSpace=wrap;html=1;fontFamily=Times New Roman;fontSize=14;" vertex="1" parent="1">
          <mxGeometry x="240" y="350" width="120" height="60" as="geometry" />
        </mxCell>
        <mxCell id="fWiGB3wulPHr79ohLmcu-37" value="II.3 Công việc lưu tạm" style="rounded=0;whiteSpace=wrap;html=1;fontFamily=Times New Roman;fontSize=14;" vertex="1" parent="1">
          <mxGeometry x="240" y="450" width="120" height="60" as="geometry" />
        </mxCell>
        <mxCell id="fWiGB3wulPHr79ohLmcu-38" value="III.1 Theo dõi tiến độ kiểm toán" style="rounded=0;whiteSpace=wrap;html=1;fontFamily=Times New Roman;fontSize=14;" vertex="1" parent="1">
          <mxGeometry x="450" y="270" width="120" height="60" as="geometry" />
        </mxCell>
        <mxCell id="fWiGB3wulPHr79ohLmcu-41" value="III.2 Thực hiện kiểm toán" style="rounded=0;whiteSpace=wrap;html=1;fontFamily=Times New Roman;fontSize=14;" vertex="1" parent="1">
          <mxGeometry x="450" y="350" width="120" height="60" as="geometry" />
        </mxCell>
        <mxCell id="fWiGB3wulPHr79ohLmcu-42" value="III.3 Tổng hợp số liệu kiến nghị kiểm toán&lt;br&gt;" style="rounded=0;whiteSpace=wrap;html=1;fontFamily=Times New Roman;fontSize=14;" vertex="1" parent="1">
          <mxGeometry x="450" y="440" width="120" height="60" as="geometry" />
        </mxCell>
        <mxCell id="fWiGB3wulPHr79ohLmcu-43" value="III.4 Thực hiện kiến nghị kiểm toán" style="rounded=0;whiteSpace=wrap;html=1;fontFamily=Times New Roman;fontSize=14;" vertex="1" parent="1">
          <mxGeometry x="450" y="510" width="120" height="60" as="geometry" />
        </mxCell>
        <mxCell id="fWiGB3wulPHr79ohLmcu-44" value="IV.1 Cán bộ biên chế" style="rounded=0;whiteSpace=wrap;html=1;fontFamily=Times New Roman;fontSize=14;" vertex="1" parent="1">
          <mxGeometry x="630" y="270" width="140" height="60" as="geometry" />
        </mxCell>
        <mxCell id="fWiGB3wulPHr79ohLmcu-45" value="IV.2 Cán bộ quản lý các cấp" style="rounded=0;whiteSpace=wrap;html=1;fontFamily=Times New Roman;fontSize=14;" vertex="1" parent="1">
          <mxGeometry x="630" y="350" width="140" height="60" as="geometry" />
        </mxCell>
        <mxCell id="fWiGB3wulPHr79ohLmcu-47" value="V.1 Lịch tuần" style="rounded=0;whiteSpace=wrap;html=1;fontFamily=Times New Roman;fontSize=14;" vertex="1" parent="1">
          <mxGeometry x="840" y="270" width="140" height="60" as="geometry" />
        </mxCell>
        <mxCell id="fWiGB3wulPHr79ohLmcu-48" value="V.2 Quản lý cuộc họp" style="rounded=0;whiteSpace=wrap;html=1;fontFamily=Times New Roman;fontSize=14;" vertex="1" parent="1">
          <mxGeometry x="840" y="350" width="140" height="60" as="geometry" />
        </mxCell>
        <mxCell id="fWiGB3wulPHr79ohLmcu-49" value="VI.1 Tin văn bản pháp luật" style="rounded=0;whiteSpace=wrap;html=1;fontFamily=Times New Roman;fontSize=14;" vertex="1" parent="1">
          <mxGeometry x="1020" y="270" width="140" height="60" as="geometry" />
        </mxCell>
        <mxCell id="fWiGB3wulPHr79ohLmcu-50" value="VII.1 Tin tức" style="rounded=0;whiteSpace=wrap;html=1;fontFamily=Times New Roman;fontSize=14;" vertex="1" parent="1">
          <mxGeometry x="1230" y="270" width="140" height="60" as="geometry" />
        </mxCell>
        <mxCell id="fWiGB3wulPHr79ohLmcu-51" value="VIII.1 Thông báo" style="rounded=0;whiteSpace=wrap;html=1;fontFamily=Times New Roman;fontSize=14;" vertex="1" parent="1">
          <mxGeometry x="1440" y="270" width="140" height="60" as="geometry" />
        </mxCell>
        <mxCell id="fWiGB3wulPHr79ohLmcu-52" value="IX.1 Thảo luận" style="rounded=0;whiteSpace=wrap;html=1;fontFamily=Times New Roman;fontSize=14;" vertex="1" parent="1">
          <mxGeometry x="1650" y="270" width="140" height="60" as="geometry" />
        </mxCell>
        <mxCell id="fWiGB3wulPHr79ohLmcu-53" value="" style="endArrow=none;html=1;fontFamily=Times New Roman;fontSize=14;entryX=0;entryY=1;entryDx=0;entryDy=0;" edge="1" parent="1" target="fWiGB3wulPHr79ohLmcu-3">
          <mxGeometry width="50" height="50" relative="1" as="geometry">
            <mxPoint x="220" y="480" as="sourcePoint" />
            <mxPoint x="340" y="290" as="targetPoint" />
          </mxGeometry>
        </mxCell>
        <mxCell id="fWiGB3wulPHr79ohLmcu-54" value="" style="endArrow=none;html=1;fontFamily=Times New Roman;fontSize=14;entryX=0.05;entryY=1.033;entryDx=0;entryDy=0;entryPerimeter=0;" edge="1" parent="1" target="fWiGB3wulPHr79ohLmcu-2">
          <mxGeometry width="50" height="50" relative="1" as="geometry">
            <mxPoint x="39" y="560" as="sourcePoint" />
            <mxPoint x="40" y="240" as="targetPoint" />
            <Array as="points">
              <mxPoint x="39" y="390" />
            </Array>
          </mxGeometry>
        </mxCell>
        <mxCell id="fWiGB3wulPHr79ohLmcu-55" value="" style="endArrow=classic;html=1;fontFamily=Times New Roman;fontSize=14;entryX=0;entryY=0.5;entryDx=0;entryDy=0;" edge="1" parent="1" target="fWiGB3wulPHr79ohLmcu-30">
          <mxGeometry width="50" height="50" relative="1" as="geometry">
            <mxPoint x="40" y="560" as="sourcePoint" />
            <mxPoint x="90" y="510" as="targetPoint" />
          </mxGeometry>
        </mxCell>
        <mxCell id="fWiGB3wulPHr79ohLmcu-56" value="" style="endArrow=classic;html=1;fontFamily=Times New Roman;fontSize=14;entryX=-0.008;entryY=0.65;entryDx=0;entryDy=0;entryPerimeter=0;" edge="1" parent="1" target="fWiGB3wulPHr79ohLmcu-29">
          <mxGeometry width="50" height="50" relative="1" as="geometry">
            <mxPoint x="40" y="480" as="sourcePoint" />
            <mxPoint x="80" y="570" as="targetPoint" />
          </mxGeometry>
        </mxCell>
        <mxCell id="fWiGB3wulPHr79ohLmcu-57" value="" style="endArrow=classic;html=1;fontFamily=Times New Roman;fontSize=14;" edge="1" parent="1" target="fWiGB3wulPHr79ohLmcu-28">
          <mxGeometry width="50" height="50" relative="1" as="geometry">
            <mxPoint x="40" y="380" as="sourcePoint" />
            <mxPoint x="79.03999999999996" y="489" as="targetPoint" />
          </mxGeometry>
        </mxCell>
        <mxCell id="fWiGB3wulPHr79ohLmcu-58" value="" style="endArrow=classic;html=1;fontFamily=Times New Roman;fontSize=14;entryX=0;entryY=0.5;entryDx=0;entryDy=0;" edge="1" parent="1" target="fWiGB3wulPHr79ohLmcu-27">
          <mxGeometry width="50" height="50" relative="1" as="geometry">
            <mxPoint x="40" y="300" as="sourcePoint" />
            <mxPoint x="80" y="570" as="targetPoint" />
          </mxGeometry>
        </mxCell>
        <mxCell id="fWiGB3wulPHr79ohLmcu-61" value="" style="endArrow=classic;html=1;fontFamily=Times New Roman;fontSize=14;" edge="1" parent="1">
          <mxGeometry width="50" height="50" relative="1" as="geometry">
            <mxPoint x="220" y="480" as="sourcePoint" />
            <mxPoint x="240" y="479" as="targetPoint" />
          </mxGeometry>
        </mxCell>
        <mxCell id="fWiGB3wulPHr79ohLmcu-63" value="" style="endArrow=classic;html=1;fontFamily=Times New Roman;fontSize=14;entryX=0;entryY=0.5;entryDx=0;entryDy=0;" edge="1" parent="1" target="fWiGB3wulPHr79ohLmcu-32">
          <mxGeometry width="50" height="50" relative="1" as="geometry">
            <mxPoint x="220" y="380" as="sourcePoint" />
            <mxPoint x="250" y="489" as="targetPoint" />
            <Array as="points" />
          </mxGeometry>
        </mxCell>
        <mxCell id="fWiGB3wulPHr79ohLmcu-64" value="" style="endArrow=classic;html=1;fontFamily=Times New Roman;fontSize=14;entryX=0;entryY=0.5;entryDx=0;entryDy=0;" edge="1" parent="1" target="fWiGB3wulPHr79ohLmcu-31">
          <mxGeometry width="50" height="50" relative="1" as="geometry">
            <mxPoint x="220" y="300" as="sourcePoint" />
            <mxPoint x="250" y="390" as="targetPoint" />
            <Array as="points" />
          </mxGeometry>
        </mxCell>
        <mxCell id="fWiGB3wulPHr79ohLmcu-65" value="" style="endArrow=none;html=1;fontFamily=Times New Roman;fontSize=14;entryX=0;entryY=1;entryDx=0;entryDy=0;" edge="1" parent="1" target="fWiGB3wulPHr79ohLmcu-4">
          <mxGeometry width="50" height="50" relative="1" as="geometry">
            <mxPoint x="410" y="540" as="sourcePoint" />
            <mxPoint x="230" y="220" as="targetPoint" />
          </mxGeometry>
        </mxCell>
        <mxCell id="fWiGB3wulPHr79ohLmcu-66" value="" style="endArrow=classic;html=1;fontFamily=Times New Roman;fontSize=14;entryX=0;entryY=0.5;entryDx=0;entryDy=0;" edge="1" parent="1" target="fWiGB3wulPHr79ohLmcu-43">
          <mxGeometry width="50" height="50" relative="1" as="geometry">
            <mxPoint x="410" y="540" as="sourcePoint" />
            <mxPoint x="440" y="520" as="targetPoint" />
          </mxGeometry>
        </mxCell>
        <mxCell id="fWiGB3wulPHr79ohLmcu-67" value="" style="endArrow=classic;html=1;fontFamily=Times New Roman;fontSize=14;exitX=0.5;exitY=1;exitDx=0;exitDy=0;" edge="1" parent="1" source="fWiGB3wulPHr79ohLmcu-1">
          <mxGeometry width="50" height="50" relative="1" as="geometry">
            <mxPoint x="690" y="70" as="sourcePoint" />
            <mxPoint x="745" y="80" as="targetPoint" />
          </mxGeometry>
        </mxCell>
      </root>
    </mxGraphModel>
  </diagram>
</mxfile>
